<svg width="200" height="140" viewBox="0 0 200 140" fill="none" xmlns="http://www.w3.org/2000/svg">
<path d="M3.98 123L4.2775 121.385C4.81583 121.102 5.41083 120.861 6.0625 120.662C6.71417 120.436 7.38 120.266 8.06 120.152L13.16 96.0975C12.5083 95.9558 11.8992 95.7858 11.3325 95.5875C10.7942 95.3608 10.3267 95.12 9.93 94.865L10.27 93.25H15.2C15.6817 93.25 16.2767 93.2358 16.985 93.2075C17.7217 93.1792 18.4725 93.1508 19.2375 93.1225C20.0308 93.0658 20.7817 93.0233 21.49 92.995C22.2267 92.9383 22.85 92.91 23.36 92.91C25.74 92.91 27.7517 93.165 29.395 93.675C31.0667 94.185 32.4125 94.9075 33.4325 95.8425C34.4808 96.7775 35.2317 97.8967 35.685 99.2C36.1667 100.475 36.4075 101.892 36.4075 103.45C36.4075 105.065 36.2658 106.68 35.9825 108.295C35.6992 109.882 35.2317 111.412 34.58 112.885C33.9283 114.358 33.0925 115.732 32.0725 117.007C31.0525 118.282 29.7917 119.402 28.29 120.365C26.8167 121.3 25.1025 122.037 23.1475 122.575C21.1925 123.113 18.9542 123.383 16.4325 123.383C16.0642 123.383 15.5542 123.354 14.9025 123.298C14.2792 123.269 13.5992 123.227 12.8625 123.17C12.1258 123.142 11.3892 123.099 10.6525 123.043C9.94417 123.014 9.32083 123 8.7825 123H3.98ZM22.3825 95.6725C21.8725 95.6725 21.3908 95.6867 20.9375 95.715C20.4842 95.7433 20.0592 95.7858 19.6625 95.8425L14.435 120.45C14.86 120.507 15.3417 120.549 15.88 120.577C16.4183 120.606 16.8433 120.62 17.155 120.62C19.45 120.62 21.3767 120.082 22.935 119.005C24.4933 117.9 25.7542 116.497 26.7175 114.797C27.6808 113.069 28.3608 111.157 28.7575 109.06C29.1825 106.963 29.395 104.909 29.395 102.897C29.395 101.736 29.2817 100.702 29.055 99.795C28.8283 98.8883 28.4458 98.1375 27.9075 97.5425C27.3692 96.9192 26.6467 96.4517 25.74 96.14C24.8333 95.8283 23.7142 95.6725 22.3825 95.6725ZM40.5459 104.767L37.8259 104.427V102.982C37.9676 102.869 38.2509 102.727 38.6759 102.557C39.1009 102.359 39.5968 102.161 40.1634 101.962C40.7584 101.764 41.3818 101.594 42.0334 101.452C42.6851 101.311 43.3226 101.24 43.9459 101.24C44.7109 101.24 45.3059 101.424 45.7309 101.792C46.1559 102.161 46.4393 102.671 46.5809 103.322L49.8534 116.2L50.0659 118.75H50.1509L51.0434 116.242C51.6101 114.882 52.1626 113.423 52.7009 111.865C53.2393 110.278 53.6643 108.805 53.9759 107.445C53.9759 107.133 53.9193 106.708 53.8059 106.17C53.7209 105.603 53.6218 105.037 53.5084 104.47C53.3951 103.875 53.2818 103.337 53.1684 102.855C53.0551 102.345 52.9701 102.005 52.9134 101.835C53.3101 101.665 53.8059 101.537 54.4009 101.452C54.9959 101.367 55.5909 101.325 56.1859 101.325C56.7809 101.325 57.3334 101.367 57.8434 101.452C58.3534 101.537 58.7643 101.665 59.0759 101.835C58.3393 105.207 57.2059 108.706 55.6759 112.332C54.1743 115.959 52.4318 119.515 50.4484 123C48.8051 125.918 47.1618 128.128 45.5184 129.63C43.9034 131.132 42.0334 131.883 39.9084 131.883C39.3134 131.883 38.7609 131.798 38.2509 131.628C37.7693 131.486 37.3301 131.288 36.9334 131.033C36.8484 130.636 36.8768 130.168 37.0184 129.63C37.1601 129.092 37.3584 128.568 37.6134 128.058C37.8968 127.548 38.2226 127.08 38.5909 126.655C38.9593 126.23 39.3418 125.947 39.7384 125.805L42.9259 128.058C43.1243 127.916 43.3793 127.703 43.6909 127.42C44.0026 127.165 44.3143 126.825 44.6259 126.4C44.9376 126.003 45.2493 125.522 45.5609 124.955C45.8726 124.388 46.1559 123.737 46.4109 123L40.5459 104.767ZM74.3039 110.887C74.5022 110.009 74.6722 109.23 74.8139 108.55C74.9839 107.87 75.0689 107.162 75.0689 106.425C75.0689 105.943 74.9556 105.532 74.7289 105.192C74.5306 104.824 74.1622 104.64 73.6239 104.64C73.0856 104.64 72.5189 104.852 71.9239 105.277C71.3572 105.674 70.7906 106.184 70.2239 106.807C69.6856 107.402 69.1756 108.068 68.6939 108.805C68.2406 109.542 67.8722 110.222 67.5889 110.845L65.0389 123H59.1739L62.8289 104.767L60.3214 104.215L60.4064 102.77C60.8031 102.572 61.3131 102.387 61.9364 102.217C62.5597 102.019 63.2397 101.849 63.9764 101.707C64.7131 101.566 65.4639 101.452 66.2289 101.367C67.0222 101.282 67.7731 101.24 68.4814 101.24L69.3314 101.75L68.0139 107.955H68.2264C68.7364 107.02 69.3314 106.142 70.0114 105.32C70.6914 104.498 71.4139 103.79 72.1789 103.195C72.9439 102.6 73.7514 102.132 74.6014 101.792C75.4514 101.424 76.3156 101.24 77.1939 101.24C78.3839 101.24 79.3189 101.622 79.9989 102.387C80.6789 103.152 81.0189 104.172 81.0189 105.447C81.0189 106.099 80.9481 106.85 80.8064 107.7C80.6647 108.522 80.4947 109.343 80.2964 110.165L77.9589 120.067H81.0189V121.512C80.7356 121.739 80.3531 121.966 79.8714 122.192C79.4181 122.419 78.9081 122.617 78.3414 122.787C77.8031 122.957 77.2364 123.099 76.6414 123.213C76.0464 123.326 75.4797 123.383 74.9414 123.383C73.9781 123.383 73.2697 123.198 72.8164 122.83C72.3914 122.462 72.1789 122.037 72.1789 121.555C72.1789 120.96 72.2497 120.322 72.3914 119.642C72.5331 118.962 72.6747 118.311 72.8164 117.688L74.3039 110.887ZM91.6817 120.11C92.2201 120.11 92.7726 119.869 93.3392 119.387C93.9342 118.906 94.4867 118.311 94.9967 117.602C95.5351 116.866 96.0167 116.072 96.4417 115.222C96.8951 114.344 97.2776 113.537 97.5892 112.8L99.1617 104.385C98.8217 104.158 98.4959 104.002 98.1842 103.917C97.9009 103.804 97.5184 103.747 97.0367 103.747C95.9034 103.747 94.8834 104.13 93.9767 104.895C93.0701 105.632 92.3051 106.609 91.6817 107.827C91.0584 109.017 90.5767 110.363 90.2367 111.865C89.9251 113.367 89.7692 114.868 89.7692 116.37C89.7692 117.673 89.9251 118.622 90.2367 119.217C90.5484 119.812 91.0301 120.11 91.6817 120.11ZM96.9517 116.242C96.5834 117.149 96.1159 118.042 95.5492 118.92C95.0109 119.77 94.3876 120.535 93.6792 121.215C92.9709 121.895 92.1917 122.447 91.3417 122.872C90.4917 123.298 89.5709 123.51 88.5792 123.51C87.1059 123.51 85.9301 122.972 85.0517 121.895C84.1734 120.818 83.7342 119.217 83.7342 117.092C83.7342 114.882 84.0317 112.828 84.6267 110.93C85.2501 109.003 86.1142 107.332 87.2192 105.915C88.3526 104.47 89.7126 103.351 91.2992 102.557C92.8859 101.736 94.6567 101.325 96.6117 101.325C97.3484 101.325 97.9717 101.41 98.4817 101.58C99.0201 101.75 99.5867 101.962 100.182 102.217C100.918 101.934 101.712 101.722 102.562 101.58C103.412 101.438 104.432 101.367 105.622 101.367L102.052 120.067H105.027V121.512C104.743 121.739 104.361 121.966 103.879 122.192C103.426 122.419 102.916 122.617 102.349 122.787C101.811 122.957 101.244 123.099 100.649 123.213C100.083 123.326 99.5442 123.383 99.0342 123.383C98.0426 123.383 97.3342 123.17 96.9092 122.745C96.4842 122.32 96.2717 121.881 96.2717 121.427C96.2717 120.917 96.3426 120.252 96.4842 119.43C96.6259 118.58 96.8384 117.517 97.1217 116.242H96.9517ZM133.479 110.25C133.621 109.598 133.777 108.904 133.947 108.167C134.117 107.402 134.202 106.807 134.202 106.382C134.202 105.844 134.103 105.419 133.904 105.107C133.734 104.796 133.409 104.64 132.927 104.64C132.445 104.64 131.949 104.824 131.439 105.192C130.929 105.532 130.434 106 129.952 106.595C129.47 107.162 129.003 107.813 128.549 108.55C128.124 109.287 127.742 110.037 127.402 110.802L124.639 123H118.944L121.537 111.057C121.735 110.179 121.905 109.329 122.047 108.507C122.189 107.686 122.259 106.921 122.259 106.212C122.259 105.164 121.863 104.64 121.069 104.64C120.673 104.64 120.219 104.824 119.709 105.192C119.199 105.561 118.689 106.042 118.179 106.637C117.669 107.204 117.188 107.856 116.734 108.592C116.281 109.329 115.927 110.08 115.672 110.845L113.207 123H107.257L111.039 104.767L108.617 104.215V102.77C109.07 102.543 109.623 102.331 110.274 102.132C110.954 101.934 111.663 101.778 112.399 101.665C113.136 101.523 113.887 101.424 114.652 101.367C115.417 101.282 116.125 101.24 116.777 101.24L117.669 101.75L116.012 107.955H116.182C116.607 107.19 117.117 106.411 117.712 105.617C118.335 104.796 119.029 104.073 119.794 103.45C120.559 102.798 121.381 102.274 122.259 101.877C123.138 101.452 124.03 101.24 124.937 101.24C125.277 101.24 125.631 101.297 125.999 101.41C126.368 101.523 126.708 101.736 127.019 102.047C127.359 102.331 127.629 102.727 127.827 103.237C128.025 103.747 128.124 104.399 128.124 105.192C128.124 105.589 128.082 106.042 127.997 106.552C127.94 107.062 127.855 107.53 127.742 107.955C128.224 107.077 128.79 106.227 129.442 105.405C130.094 104.583 130.788 103.875 131.524 103.28C132.289 102.657 133.083 102.161 133.904 101.792C134.754 101.424 135.633 101.24 136.539 101.24C137.616 101.24 138.494 101.58 139.174 102.26C139.854 102.94 140.194 103.875 140.194 105.065C140.194 105.972 140.109 106.836 139.939 107.657C139.769 108.479 139.585 109.343 139.387 110.25L136.964 120.067H139.939V121.512C139.656 121.739 139.259 121.966 138.749 122.192C138.268 122.419 137.744 122.617 137.177 122.787C136.61 122.957 136.029 123.099 135.434 123.213C134.839 123.326 134.287 123.383 133.777 123.383C132.757 123.383 132.049 123.184 131.652 122.787C131.255 122.362 131.057 121.895 131.057 121.385C131.057 120.563 131.255 119.43 131.652 117.985L133.479 110.25ZM144.216 104.215V102.77C144.641 102.6 145.208 102.43 145.916 102.26C146.625 102.062 147.376 101.892 148.169 101.75C148.962 101.608 149.741 101.495 150.506 101.41C151.3 101.297 151.994 101.24 152.589 101.24L153.354 101.75L149.529 120.067H152.504V121.512C152.136 121.767 151.696 122.008 151.186 122.235C150.705 122.462 150.181 122.66 149.614 122.83C149.076 123 148.523 123.128 147.956 123.213C147.39 123.326 146.851 123.383 146.341 123.383C145.265 123.383 144.514 123.184 144.089 122.787C143.692 122.362 143.494 121.909 143.494 121.427C143.494 120.861 143.536 120.308 143.621 119.77C143.706 119.232 143.82 118.637 143.961 117.985L146.851 104.81L144.216 104.215ZM147.744 94.6525C147.744 93.6892 148.07 92.9383 148.721 92.4C149.373 91.8617 150.195 91.5925 151.186 91.5925C152.263 91.5925 153.113 91.8617 153.736 92.4C154.388 92.9383 154.714 93.6892 154.714 94.6525C154.714 95.5592 154.388 96.2817 153.736 96.82C153.113 97.3583 152.263 97.6275 151.186 97.6275C150.195 97.6275 149.373 97.3583 148.721 96.82C148.07 96.2817 147.744 95.5592 147.744 94.6525ZM171.702 118.367C171.333 118.962 170.852 119.572 170.257 120.195C169.662 120.818 168.967 121.371 168.174 121.852C167.409 122.334 166.559 122.731 165.624 123.043C164.689 123.354 163.697 123.51 162.649 123.51C160.411 123.51 158.626 122.844 157.294 121.512C155.991 120.181 155.339 118.325 155.339 115.945C155.339 113.962 155.637 112.077 156.232 110.292C156.855 108.507 157.719 106.949 158.824 105.617C159.929 104.257 161.261 103.195 162.819 102.43C164.406 101.637 166.162 101.24 168.089 101.24C169.364 101.24 170.469 101.382 171.404 101.665C172.367 101.92 173.005 102.232 173.317 102.6C173.345 102.912 173.288 103.308 173.147 103.79C173.033 104.243 172.849 104.711 172.594 105.192C172.339 105.646 172.027 106.085 171.659 106.51C171.319 106.907 170.965 107.19 170.597 107.36L168.004 103.662C167.239 103.662 166.46 103.932 165.667 104.47C164.902 104.98 164.207 105.731 163.584 106.722C162.961 107.686 162.451 108.862 162.054 110.25C161.657 111.61 161.459 113.154 161.459 114.882C161.459 116.611 161.813 117.886 162.522 118.707C163.23 119.501 164.179 119.897 165.369 119.897C165.936 119.897 166.474 119.812 166.984 119.642C167.522 119.444 168.018 119.217 168.472 118.962C168.925 118.707 169.336 118.438 169.704 118.155C170.101 117.843 170.441 117.56 170.724 117.305L171.702 118.367ZM182.425 118.325C182.425 117.702 182.255 117.149 181.915 116.667C181.575 116.157 181.15 115.662 180.64 115.18C180.13 114.698 179.563 114.231 178.94 113.777C178.345 113.296 177.792 112.757 177.282 112.162C176.772 111.567 176.347 110.916 176.007 110.207C175.667 109.471 175.497 108.621 175.497 107.657C175.497 105.504 176.262 103.903 177.792 102.855C179.351 101.778 181.462 101.24 184.125 101.24C184.578 101.24 185.074 101.268 185.612 101.325C186.179 101.353 186.746 101.424 187.312 101.538C187.879 101.651 188.417 101.792 188.927 101.962C189.466 102.104 189.947 102.302 190.372 102.557C190.401 102.869 190.372 103.28 190.287 103.79C190.231 104.272 190.103 104.767 189.905 105.277C189.735 105.759 189.494 106.212 189.182 106.637C188.899 107.034 188.545 107.303 188.12 107.445L184.72 103.662C183.813 103.662 183.048 103.847 182.425 104.215C181.83 104.583 181.532 105.235 181.532 106.17C181.532 106.793 181.702 107.36 182.042 107.87C182.411 108.38 182.85 108.876 183.36 109.357C183.87 109.811 184.437 110.278 185.06 110.76C185.683 111.242 186.25 111.78 186.76 112.375C187.27 112.942 187.695 113.593 188.035 114.33C188.403 115.067 188.587 115.917 188.587 116.88C188.587 117.957 188.347 118.906 187.865 119.727C187.383 120.549 186.717 121.243 185.867 121.81C185.046 122.377 184.054 122.802 182.892 123.085C181.731 123.368 180.47 123.51 179.11 123.51C177.665 123.51 176.362 123.34 175.2 123C174.067 122.688 173.217 122.334 172.65 121.937C172.622 121.031 172.777 120.138 173.117 119.26C173.486 118.382 174.01 117.702 174.69 117.22L178.812 121.087C179.747 121.087 180.583 120.861 181.32 120.407C182.057 119.954 182.425 119.26 182.425 118.325Z" fill="#303740"/>
<path d="M154.997 94.8607C154.997 97.346 152.983 99.3594 150.499 99.3594C148.013 99.3594 146 97.346 146 94.8607C146 92.3763 148.013 90.3619 150.499 90.3619C152.983 90.3619 154.997 92.3763 154.997 94.8607Z" fill="#CB3C33" fill-opacity="0.8"/>
<path d="M165.806 94.8607C165.806 97.346 163.792 99.3594 161.308 99.3594C158.823 99.3594 156.809 97.346 156.809 94.8607C156.809 92.3763 158.823 90.3619 161.308 90.3619C163.792 90.3619 165.806 92.3763 165.806 94.8607Z" fill="#9558B2" fill-opacity="0.8"/>
<path d="M160.403 85.4987C160.403 87.9831 158.389 89.9974 155.904 89.9974C153.419 89.9974 151.405 87.9831 151.405 85.4987C151.405 83.0144 153.419 81 155.904 81C158.389 81 160.403 83.0144 160.403 85.4987Z" fill="#389826" fill-opacity="0.8"/>
<path d="M7.84 55.6H21.616V57.196C21.028 57.504 20.37 57.77 19.642 57.994C18.942 58.19 18.256 58.33 17.584 58.414V82.27H25.69L28.504 74.752H30.226C30.338 75.396 30.436 76.152 30.52 77.02C30.632 77.888 30.716 78.798 30.772 79.75C30.828 80.702 30.87 81.64 30.898 82.564C30.926 83.488 30.926 84.3 30.898 85H7.84V83.404C8.484 83.068 9.086 82.802 9.646 82.606C10.234 82.41 10.78 82.27 11.284 82.186V58.414C9.912 58.19 8.764 57.784 7.84 57.196V55.6ZM51.6463 78.91C51.6463 79.526 51.6463 80.058 51.6463 80.506C51.6743 80.954 51.7163 81.43 51.7723 81.934L54.6703 82.354V83.824C54.3343 83.992 53.8723 84.16 53.2843 84.328C52.7243 84.496 52.1223 84.664 51.4783 84.832C50.8623 84.972 50.2463 85.084 49.6303 85.168C49.0143 85.28 48.4683 85.364 47.9923 85.42H46.5643C46.2843 84.776 46.1163 84.132 46.0603 83.488C46.0043 82.844 45.9623 82.06 45.9343 81.136H45.7243C45.5843 81.696 45.3463 82.242 45.0103 82.774C44.6743 83.278 44.2403 83.74 43.7083 84.16C43.2043 84.552 42.6023 84.874 41.9023 85.126C41.2023 85.378 40.4183 85.504 39.5503 85.504C38.6263 85.504 37.7723 85.364 36.9883 85.084C36.2043 84.804 35.5183 84.412 34.9303 83.908C34.3423 83.404 33.8803 82.802 33.5443 82.102C33.2083 81.374 33.0403 80.562 33.0403 79.666C33.0403 78.406 33.2783 77.37 33.7543 76.558C34.2303 75.746 34.9723 75.088 35.9803 74.584C37.0163 74.052 38.3323 73.66 39.9283 73.408C41.5523 73.156 43.5123 72.974 45.8083 72.862C46.0323 70.454 45.9343 68.69 45.5143 67.57C45.0943 66.45 44.1843 65.89 42.7843 65.89C41.9163 65.89 41.1183 66.03 40.3903 66.31L38.4163 71.35H36.5683C36.3443 71.014 36.1203 70.636 35.8963 70.216C35.7003 69.768 35.5043 69.306 35.3083 68.83C35.1403 68.326 34.9863 67.822 34.8463 67.318C34.7343 66.814 34.6503 66.324 34.5943 65.848C35.6583 65.12 37.0303 64.546 38.7103 64.126C40.3903 63.706 42.1683 63.496 44.0443 63.496C45.6403 63.496 46.9423 63.678 47.9503 64.042C48.9583 64.378 49.7423 64.854 50.3023 65.47C50.8903 66.058 51.2963 66.758 51.5203 67.57C51.7443 68.382 51.8563 69.25 51.8563 70.174C51.8563 71.854 51.8143 73.38 51.7303 74.752C51.6743 76.096 51.6463 77.482 51.6463 78.91ZM42.1963 82.144C42.7843 82.144 43.2883 82.032 43.7083 81.808C44.1283 81.584 44.4783 81.318 44.7583 81.01C45.0663 80.702 45.2903 80.366 45.4303 80.002C45.5983 79.638 45.7243 79.316 45.8083 79.036V74.836C44.4923 74.864 43.4143 74.948 42.5743 75.088C41.7343 75.228 41.0763 75.466 40.6003 75.802C40.1243 76.11 39.7883 76.516 39.5923 77.02C39.4243 77.496 39.3403 78.084 39.3403 78.784C39.3403 79.848 39.5923 80.674 40.0963 81.262C40.6003 81.85 41.3003 82.144 42.1963 82.144ZM55.8312 66.646C55.4112 66.534 55.0192 66.394 54.6552 66.226C54.3192 66.058 53.9692 65.862 53.6052 65.638V64H64.6512V65.596C64.0632 65.988 63.2652 66.338 62.2572 66.646L66.4992 77.188L67.2132 79.876H67.2972L67.9692 77.146L71.2452 66.646C70.4052 66.478 69.6352 66.142 68.9352 65.638V64H77.0412V65.638C76.4532 66.03 75.6552 66.366 74.6472 66.646L67.8012 85C67.1292 86.792 66.4572 88.248 65.7852 89.368C65.1132 90.516 64.4412 91.426 63.7692 92.098C63.0972 92.77 62.4252 93.232 61.7532 93.484C61.0812 93.764 60.4092 93.946 59.7372 94.03C59.4572 93.778 59.2052 93.456 58.9812 93.064C58.7572 92.7 58.5612 92.294 58.3932 91.846C58.2252 91.426 58.0852 90.992 57.9732 90.544C57.8612 90.096 57.7912 89.676 57.7632 89.284L58.3092 88.276H63.4332C63.6852 87.884 63.8952 87.464 64.0632 87.016C64.2592 86.568 64.4832 85.896 64.7352 85L55.8312 66.646ZM95.7867 81.472C95.5627 81.948 95.1987 82.438 94.6947 82.942C94.2187 83.418 93.6167 83.852 92.8887 84.244C92.1887 84.608 91.3627 84.902 90.4107 85.126C89.4867 85.378 88.4787 85.504 87.3867 85.504C85.6507 85.504 84.1107 85.252 82.7667 84.748C81.4227 84.216 80.3027 83.474 79.4067 82.522C78.5107 81.542 77.8247 80.38 77.3487 79.036C76.9007 77.692 76.6767 76.18 76.6767 74.5C76.6767 70.916 77.6147 68.186 79.4907 66.31C81.3667 64.434 83.9707 63.496 87.3027 63.496C88.7307 63.496 90.0607 63.692 91.2927 64.084C92.5527 64.476 93.5887 65.12 94.4007 66.016C95.2407 66.912 95.8147 68.088 96.1227 69.544C96.4587 71 96.4447 72.778 96.0807 74.878H83.1867C83.2147 77.09 83.7747 78.854 84.8667 80.17C85.9867 81.486 87.6247 82.144 89.7807 82.144C90.7047 82.144 91.6567 82.004 92.6367 81.724C93.6447 81.444 94.4287 81.08 94.9887 80.632L95.7867 81.472ZM87.1347 65.89C86.5747 65.89 86.0707 65.988 85.6227 66.184C85.2027 66.38 84.8247 66.744 84.4887 67.276C84.1807 67.78 83.9287 68.48 83.7327 69.376C83.5367 70.244 83.3967 71.35 83.3127 72.694H90.0747C90.2707 70.51 90.1447 68.83 89.6967 67.654C89.2487 66.478 88.3947 65.89 87.1347 65.89ZM109.273 68.83C108.937 68.998 108.545 69.278 108.097 69.67C107.649 70.062 107.243 70.706 106.879 71.602V82.354C107.439 82.41 107.999 82.522 108.559 82.69C109.119 82.83 109.679 83.054 110.239 83.362V85H98.0593V83.362C98.5633 83.082 99.0393 82.872 99.4873 82.732C99.9353 82.592 100.383 82.466 100.831 82.354V66.982L98.0593 66.646V65.008C98.5073 64.812 99.0533 64.63 99.6973 64.462C100.369 64.294 101.055 64.154 101.755 64.042C102.455 63.902 103.127 63.79 103.771 63.706C104.443 63.622 105.003 63.552 105.451 63.496H106.879V69.082H107.047C107.271 68.466 107.593 67.822 108.013 67.15C108.461 66.478 108.979 65.862 109.567 65.302C110.155 64.742 110.799 64.294 111.499 63.958C112.199 63.622 112.927 63.468 113.683 63.496C113.991 63.888 114.257 64.448 114.481 65.176C114.705 65.876 114.887 66.548 115.027 67.192V68.83H109.273Z" fill="#303740"/>
<path d="M6.84 48V46.404C7.372 46.096 7.932 45.83 8.52 45.606C9.136 45.382 9.724 45.242 10.284 45.186V21.414C9.724 21.302 9.136 21.148 8.52 20.952C7.904 20.728 7.344 20.476 6.84 20.196V18.6H13.602C14.666 18.6 15.674 18.558 16.626 18.474C17.578 18.39 18.67 18.348 19.902 18.348C21.246 18.348 22.548 18.446 23.808 18.642C25.068 18.838 26.188 19.188 27.168 19.692C28.148 20.196 28.932 20.91 29.52 21.834C30.108 22.73 30.402 23.892 30.402 25.32C30.402 26.216 30.234 27.056 29.898 27.84C29.59 28.596 29.142 29.268 28.554 29.856C27.994 30.444 27.322 30.934 26.538 31.326C25.782 31.718 24.956 31.998 24.06 32.166V32.334C24.956 32.446 25.852 32.656 26.748 32.964C27.672 33.272 28.498 33.72 29.226 34.308C29.954 34.896 30.542 35.638 30.99 36.534C31.466 37.402 31.704 38.438 31.704 39.642C31.704 41.154 31.368 42.456 30.696 43.548C30.024 44.64 29.114 45.536 27.966 46.236C26.846 46.936 25.558 47.454 24.102 47.79C22.646 48.098 21.134 48.252 19.566 48.252C18.978 48.252 18.334 48.238 17.634 48.21C16.934 48.182 16.234 48.154 15.534 48.126C14.834 48.098 14.148 48.07 13.476 48.042C12.832 48.014 12.286 48 11.838 48H6.84ZM19.524 45.522C21.288 45.522 22.674 45.004 23.682 43.968C24.69 42.904 25.194 41.504 25.194 39.768C25.194 38.704 25.026 37.836 24.69 37.164C24.354 36.464 23.892 35.918 23.304 35.526C22.716 35.106 22.016 34.826 21.204 34.686C20.392 34.518 19.51 34.434 18.558 34.434H16.332V45.228C16.724 45.312 17.13 45.382 17.55 45.438C17.998 45.494 18.656 45.522 19.524 45.522ZM17.676 31.704C18.152 31.704 18.628 31.69 19.104 31.662C19.58 31.606 20.028 31.55 20.448 31.494C21.54 31.046 22.422 30.36 23.094 29.436C23.766 28.484 24.102 27.406 24.102 26.202C24.102 24.438 23.64 23.15 22.716 22.338C21.792 21.498 20.602 21.078 19.146 21.078C18.53 21.078 17.998 21.092 17.55 21.12C17.102 21.148 16.696 21.19 16.332 21.246V31.704H17.676ZM33.7374 37.5C33.7374 35.792 33.9894 34.266 34.4934 32.922C35.0254 31.55 35.7674 30.388 36.7194 29.436C37.6994 28.484 38.8754 27.756 40.2474 27.252C41.6194 26.748 43.1734 26.496 44.9094 26.496C46.8694 26.496 48.5494 26.776 49.9494 27.336C51.3774 27.868 52.5394 28.624 53.4354 29.604C54.3594 30.556 55.0314 31.718 55.4514 33.09C55.8714 34.434 56.0814 35.904 56.0814 37.5C56.0814 39.208 55.8294 40.748 55.3254 42.12C54.8214 43.464 54.0794 44.612 53.0994 45.564C52.1474 46.516 50.9714 47.244 49.5714 47.748C48.1994 48.252 46.6454 48.504 44.9094 48.504C43.0054 48.504 41.3534 48.238 39.9534 47.706C38.5534 47.146 37.3914 46.39 36.4674 45.438C35.5434 44.458 34.8574 43.296 34.4094 41.952C33.9614 40.58 33.7374 39.096 33.7374 37.5ZM40.2474 37.5C40.2474 38.76 40.3174 39.922 40.4574 40.986C40.6254 42.022 40.9054 42.904 41.2974 43.632C41.6894 44.36 42.2214 44.934 42.8934 45.354C43.5654 45.746 44.4334 45.942 45.4974 45.942C46.1134 45.942 46.6734 45.802 47.1774 45.522C47.6814 45.214 48.1154 44.738 48.4794 44.094C48.8434 43.422 49.1094 42.554 49.2774 41.49C49.4734 40.398 49.5714 39.068 49.5714 37.5C49.5714 36.212 49.4874 35.05 49.3194 34.014C49.1794 32.978 48.9134 32.096 48.5214 31.368C48.1574 30.64 47.6534 30.08 47.0094 29.688C46.3654 29.268 45.5534 29.058 44.5734 29.058C43.8454 29.058 43.2154 29.212 42.6834 29.52C42.1514 29.8 41.7034 30.276 41.3394 30.948C40.9754 31.592 40.6954 32.46 40.4994 33.552C40.3314 34.616 40.2474 35.932 40.2474 37.5ZM59.0949 39.684C59.0949 37.92 59.1369 36.282 59.2209 34.77C59.3049 33.258 59.3469 31.662 59.3469 29.982L56.5749 29.646V28.008C57.0229 27.84 57.5689 27.672 58.2129 27.504C58.8849 27.336 59.5709 27.196 60.2709 27.084C60.9709 26.944 61.6429 26.832 62.2869 26.748C62.9589 26.636 63.5189 26.552 63.9669 26.496H65.3949C65.3949 28.596 65.3529 30.668 65.2689 32.712C65.1849 34.728 65.1429 36.716 65.1429 38.676C65.1429 40.972 65.3669 42.624 65.8149 43.632C66.2909 44.64 67.1589 45.144 68.4189 45.144C69.2869 45.144 70.0849 44.822 70.8129 44.178C71.5689 43.506 72.1849 42.442 72.6609 40.986V29.982L69.9309 29.646V28.008C70.3509 27.84 70.8689 27.672 71.4849 27.504C72.1289 27.336 72.7869 27.196 73.4589 27.084C74.1589 26.944 74.8449 26.832 75.5169 26.748C76.1889 26.636 76.7769 26.552 77.2809 26.496H78.7089V45.018L81.4809 45.354V46.824C81.0889 46.992 80.5989 47.16 80.0109 47.328C79.4229 47.496 78.8069 47.664 78.1629 47.832C77.5189 47.972 76.8749 48.084 76.2309 48.168C75.6149 48.28 75.0549 48.364 74.5509 48.42H73.1229L72.8289 43.422H72.6609C72.5209 44.01 72.2689 44.612 71.9049 45.228C71.5409 45.816 71.0649 46.362 70.4769 46.866C69.9169 47.342 69.2449 47.734 68.4609 48.042C67.6769 48.35 66.8089 48.504 65.8569 48.504C64.7929 48.504 63.8409 48.364 63.0009 48.084C62.1889 47.832 61.4889 47.37 60.9009 46.698C60.3129 46.026 59.8649 45.13 59.5569 44.01C59.2489 42.862 59.0949 41.42 59.0949 39.684ZM107.944 48H96.8138V46.362C97.1778 46.166 97.5278 45.998 97.8638 45.858C98.2278 45.69 98.6478 45.522 99.1238 45.354V35.484C99.1238 33.72 98.8718 32.348 98.3678 31.368C97.8638 30.36 96.9678 29.856 95.6798 29.856C94.6158 29.856 93.6918 30.206 92.9078 30.906C92.1518 31.578 91.5778 32.502 91.1858 33.678V45.354C91.6338 45.466 92.0258 45.606 92.3618 45.774C92.7258 45.914 93.1038 46.11 93.4958 46.362V48H82.3658V46.362C83.0658 45.998 83.9898 45.662 85.1378 45.354V29.982L82.3658 29.646V28.008C82.7298 27.84 83.2058 27.686 83.7938 27.546C84.3818 27.378 85.0118 27.224 85.6838 27.084C86.3838 26.944 87.0838 26.832 87.7838 26.748C88.5118 26.636 89.1698 26.552 89.7578 26.496H91.1858V30.822H91.2278C91.8158 29.646 92.6978 28.638 93.8738 27.798C95.0498 26.93 96.4778 26.496 98.1578 26.496C99.2498 26.496 100.23 26.636 101.098 26.916C101.966 27.168 102.694 27.63 103.282 28.302C103.898 28.974 104.36 29.884 104.668 31.032C105.004 32.152 105.172 33.58 105.172 35.316V45.354C106.292 45.55 107.216 45.886 107.944 46.362V48ZM123.003 43.842C122.863 44.458 122.611 45.046 122.247 45.606C121.883 46.166 121.449 46.67 120.945 47.118C120.441 47.538 119.867 47.874 119.223 48.126C118.579 48.378 117.893 48.504 117.165 48.504C114.393 48.504 112.279 47.636 110.823 45.9C109.395 44.136 108.681 41.448 108.681 37.836C108.681 35.988 108.933 34.378 109.437 33.006C109.941 31.606 110.641 30.43 111.537 29.478C112.461 28.526 113.567 27.812 114.855 27.336C116.143 26.86 117.571 26.622 119.139 26.622C119.643 26.622 120.063 26.636 120.399 26.664C120.763 26.692 121.085 26.734 121.365 26.79C121.673 26.818 121.953 26.888 122.205 27C122.485 27.084 122.793 27.182 123.129 27.294V19.902L119.937 19.566V17.928C120.329 17.76 120.861 17.606 121.533 17.466C122.233 17.326 122.961 17.2 123.717 17.088C124.473 16.948 125.215 16.822 125.943 16.71C126.671 16.598 127.273 16.5 127.749 16.416H129.177V45.018L131.949 45.354V46.824C131.557 47.02 131.053 47.202 130.437 47.37C129.821 47.538 129.177 47.692 128.505 47.832C127.833 47.972 127.175 48.084 126.531 48.168C125.915 48.28 125.397 48.364 124.977 48.42H123.549L123.171 43.842H123.003ZM119.181 45.144C120.161 45.144 120.987 44.836 121.659 44.22C122.331 43.604 122.821 42.554 123.129 41.07V29.772C122.765 29.548 122.303 29.366 121.743 29.226C121.211 29.086 120.539 29.016 119.727 29.016C118.103 29.016 116.941 29.758 116.241 31.242C115.541 32.698 115.191 34.826 115.191 37.626C115.191 39.894 115.499 41.714 116.115 43.086C116.731 44.458 117.753 45.144 119.181 45.144ZM151.422 41.91C151.422 42.526 151.422 43.058 151.422 43.506C151.45 43.954 151.492 44.43 151.548 44.934L154.446 45.354V46.824C154.11 46.992 153.648 47.16 153.06 47.328C152.5 47.496 151.898 47.664 151.254 47.832C150.638 47.972 150.022 48.084 149.406 48.168C148.79 48.28 148.244 48.364 147.768 48.42H146.34C146.06 47.776 145.892 47.132 145.836 46.488C145.78 45.844 145.738 45.06 145.71 44.136H145.5C145.36 44.696 145.122 45.242 144.786 45.774C144.45 46.278 144.016 46.74 143.484 47.16C142.98 47.552 142.378 47.874 141.678 48.126C140.978 48.378 140.194 48.504 139.326 48.504C138.402 48.504 137.548 48.364 136.764 48.084C135.98 47.804 135.294 47.412 134.706 46.908C134.118 46.404 133.656 45.802 133.32 45.102C132.984 44.374 132.816 43.562 132.816 42.666C132.816 41.406 133.054 40.37 133.53 39.558C134.006 38.746 134.748 38.088 135.756 37.584C136.792 37.052 138.108 36.66 139.704 36.408C141.328 36.156 143.288 35.974 145.584 35.862C145.808 33.454 145.71 31.69 145.29 30.57C144.87 29.45 143.96 28.89 142.56 28.89C141.692 28.89 140.894 29.03 140.166 29.31L138.192 34.35H136.344C136.12 34.014 135.896 33.636 135.672 33.216C135.476 32.768 135.28 32.306 135.084 31.83C134.916 31.326 134.762 30.822 134.622 30.318C134.51 29.814 134.426 29.324 134.37 28.848C135.434 28.12 136.806 27.546 138.486 27.126C140.166 26.706 141.944 26.496 143.82 26.496C145.416 26.496 146.718 26.678 147.726 27.042C148.734 27.378 149.518 27.854 150.078 28.47C150.666 29.058 151.072 29.758 151.296 30.57C151.52 31.382 151.632 32.25 151.632 33.174C151.632 34.854 151.59 36.38 151.506 37.752C151.45 39.096 151.422 40.482 151.422 41.91ZM141.972 45.144C142.56 45.144 143.064 45.032 143.484 44.808C143.904 44.584 144.254 44.318 144.534 44.01C144.842 43.702 145.066 43.366 145.206 43.002C145.374 42.638 145.5 42.316 145.584 42.036V37.836C144.268 37.864 143.19 37.948 142.35 38.088C141.51 38.228 140.852 38.466 140.376 38.802C139.9 39.11 139.564 39.516 139.368 40.02C139.2 40.496 139.116 41.084 139.116 41.784C139.116 42.848 139.368 43.674 139.872 44.262C140.376 44.85 141.076 45.144 141.972 45.144ZM166.401 31.83C166.065 31.998 165.673 32.278 165.225 32.67C164.777 33.062 164.371 33.706 164.007 34.602V45.354C164.567 45.41 165.127 45.522 165.687 45.69C166.247 45.83 166.807 46.054 167.367 46.362V48H155.187V46.362C155.691 46.082 156.167 45.872 156.615 45.732C157.063 45.592 157.511 45.466 157.959 45.354V29.982L155.187 29.646V28.008C155.635 27.812 156.181 27.63 156.825 27.462C157.497 27.294 158.183 27.154 158.883 27.042C159.583 26.902 160.255 26.79 160.899 26.706C161.571 26.622 162.131 26.552 162.579 26.496H164.007V32.082H164.175C164.399 31.466 164.721 30.822 165.141 30.15C165.589 29.478 166.107 28.862 166.695 28.302C167.283 27.742 167.927 27.294 168.627 26.958C169.327 26.622 170.055 26.468 170.811 26.496C171.119 26.888 171.385 27.448 171.609 28.176C171.833 28.876 172.015 29.548 172.155 30.192V31.83H166.401ZM175.165 29.646C174.745 29.534 174.353 29.394 173.989 29.226C173.653 29.058 173.303 28.862 172.939 28.638V27H183.985V28.596C183.397 28.988 182.599 29.338 181.591 29.646L185.833 40.188L186.547 42.876H186.631L187.303 40.146L190.579 29.646C189.739 29.478 188.969 29.142 188.269 28.638V27H196.375V28.638C195.787 29.03 194.989 29.366 193.981 29.646L187.135 48C186.463 49.792 185.791 51.248 185.119 52.368C184.447 53.516 183.775 54.426 183.103 55.098C182.431 55.77 181.759 56.232 181.087 56.484C180.415 56.764 179.743 56.946 179.071 57.03C178.791 56.778 178.539 56.456 178.315 56.064C178.091 55.7 177.895 55.294 177.727 54.846C177.559 54.426 177.419 53.992 177.307 53.544C177.195 53.096 177.125 52.676 177.097 52.284L177.643 51.276H182.767C183.019 50.884 183.229 50.464 183.397 50.016C183.593 49.568 183.817 48.896 184.069 48L175.165 29.646Z" fill="#303740"/>
</svg>
